<svg xmlns="http://www.w3.org/2000/svg" xmlns:xlink="http://www.w3.org/1999/xlink" width="12.28" height="20" viewBox="0 0 12.28 20">
  <defs>
    <linearGradient id="linear-gradient" x1="0.204" y1="0.024" x2="0.793" y2="1.406" gradientUnits="objectBoundingBox">
      <stop offset="0" stop-color="#af7c13"/>
      <stop offset="0.123" stop-color="#cba252"/>
      <stop offset="0.236" stop-color="#fef8ca"/>
      <stop offset="0.399" stop-color="#ebb33c"/>
      <stop offset="0.621" stop-color="#ba8100"/>
      <stop offset="0.788" stop-color="#b88a28"/>
      <stop offset="1" stop-color="#9a7526"/>
    </linearGradient>
    <linearGradient id="linear-gradient-2" x1="0.626" y1="0.035" x2="0" y2="0.849" gradientUnits="objectBoundingBox">
      <stop offset="0" stop-color="#9d691d"/>
      <stop offset="0.291" stop-color="#ffdc57"/>
      <stop offset="0.495" stop-color="#ffd95a"/>
      <stop offset="0.744" stop-color="#ddc55b"/>
      <stop offset="1" stop-color="#98842a"/>
    </linearGradient>
  </defs>
  <g id="Group_28296" data-name="Group 28296" transform="translate(-766.677 31.055)">
    <path id="Path_83941" data-name="Path 83941" d="M1.292,18.947a9.7,9.7,0,0,0,4.26.943c2.4,0,6.625-.864,6.625-5.085,0-2.958-2.131-4.621-5.64-7.007C4.913,6.641,2.7,5.471,2.7,3.567,2.7,1.984,4.16,1.037,6.18,1.037a7.621,7.621,0,0,1,4,1.219l-1-1.749A7.672,7.672,0,0,0,6.209,0C3.528,0,.4,1.137.4,4.34.4,6.874,2.386,8.3,5.682,10.676c1.53,1.092,3.935,2.821,3.935,4.946,0,1.994-1.552,3.233-4.05,3.233A8.744,8.744,0,0,1,0,16.651Z" transform="translate(766.725 -31)" fill="url(#linear-gradient)"/>
    <path id="Path_83942" data-name="Path 83942" d="M5.552,19.945A9.665,9.665,0,0,1,1.267,19l-.015-.007-1.3-2.31.084-.068A8.641,8.641,0,0,0,5.567,18.8c2.465,0,4-1.218,4-3.178,0-2.109-2.449-3.857-3.913-4.9C2.34,8.339.342,6.9.342,4.34.342,1.1,3.5-.055,6.209-.055A7.74,7.74,0,0,1,9.2.459l.013.007,1.009,1.762-.077.073A7.521,7.521,0,0,0,6.18,1.091a4.271,4.271,0,0,0-2.466.662,2.146,2.146,0,0,0-.959,1.814c0,1.594,1.558,2.65,3.065,3.671.262.177.509.345.748.515,3.524,2.4,5.664,4.067,5.664,7.052a4.458,4.458,0,0,1-2.441,4.173A9.351,9.351,0,0,1,5.552,19.945ZM1.331,18.906a9.566,9.566,0,0,0,4.221.929,9.24,9.24,0,0,0,4.186-.953,4.355,4.355,0,0,0,2.385-4.077c0-2.931-2.122-4.586-5.617-6.962-.24-.171-.486-.338-.747-.515C4.3,6.34,2.646,5.219,2.646,3.567a2.252,2.252,0,0,1,1.005-1.9A4.378,4.378,0,0,1,6.18.982,7.626,7.626,0,0,1,10.018,2.09L9.134.547A7.716,7.716,0,0,0,6.209.054C3.553.054.451,1.177.451,4.34c0,2.506,1.981,3.931,5.262,6.291,1.48,1.056,3.958,2.825,3.958,4.99,0,2.028-1.573,3.287-4.1,3.287A8.7,8.7,0,0,1,.2,16.895Z" transform="translate(766.725 -31)" fill="url(#linear-gradient-2)"/>
  </g>
</svg>
